<svg width="24" height="25" viewBox="0 0 24 25" fill="none" xmlns="http://www.w3.org/2000/svg">
<path d="M22.4167 17.8299V21.0799C22.4179 21.3817 22.3585 21.6803 22.2423 21.9567C22.126 22.2332 21.9556 22.4813 21.7418 22.6853C21.528 22.8893 21.2757 23.0446 21.0009 23.1412C20.726 23.2379 20.4348 23.2738 20.1459 23.2466C16.9405 22.8844 13.8615 21.7453 11.1563 19.9208C8.63948 18.2575 6.50563 16.0383 4.90632 13.4208C3.14588 10.5946 2.05033 7.37685 1.70841 4.02828C1.68238 3.7287 1.71661 3.42677 1.80893 3.1417C1.90125 2.85664 2.04963 2.59469 2.24462 2.37253C2.43962 2.15037 2.67695 1.97288 2.94152 1.85134C3.20609 1.7298 3.49209 1.66689 3.78132 1.66661H6.90632C7.41185 1.66143 7.90194 1.84761 8.28524 2.19044C8.66854 2.53326 8.9189 3.00934 8.98966 3.52994C9.12155 4.57001 9.36617 5.59123 9.71882 6.57411C9.85897 6.96186 9.8893 7.38327 9.80623 7.7884C9.72315 8.19353 9.53014 8.5654 9.25007 8.85994L7.92716 10.2358C9.41003 12.948 11.5693 15.1936 14.1772 16.7358L15.5001 15.3599C15.7833 15.0687 16.1409 14.8679 16.5304 14.7815C16.92 14.6951 17.3252 14.7267 17.698 14.8724C18.6431 15.2392 19.625 15.4936 20.6251 15.6308C21.1311 15.705 21.5932 15.9701 21.9235 16.3756C22.2539 16.781 22.4294 17.2986 22.4167 17.8299Z" stroke="#475467" stroke-width="2" stroke-linecap="round" stroke-linejoin="round"/>
</svg>
